<?xml version="1.0" encoding="UTF-8" standalone="no"?>
<!DOCTYPE svg PUBLIC "-//W3C//DTD SVG 1.1//EN"
 "http://www.w3.org/Graphics/SVG/1.1/DTD/svg11.dtd">
<!-- Generated by graphviz version 10.0.1 (0)
 -->
<!-- Title: D Pages: 1 -->
<svg width="648pt" height="803pt"
 viewBox="0.00 0.00 648.46 802.50" xmlns="http://www.w3.org/2000/svg" xmlns:xlink="http://www.w3.org/1999/xlink">
<g id="graph0" class="graph" transform="scale(1 1) rotate(0) translate(4 798.5)">
<title>D</title>
<polygon fill="white" stroke="none" points="-4,4 -4,-798.5 644.46,-798.5 644.46,4 -4,4"/>
<g id="clust1" class="cluster">
<title>cluster_Switch_0</title>
<polygon fill="none" stroke="black" points="0,-422 0,-794.5 295.46,-794.5 295.46,-422 0,-422"/>
<text text-anchor="middle" x="147.73" y="-766.75" font-family="Times,serif" font-size="25.00">sw A</text>
</g>
<g id="clust2" class="cluster">
<title>cluster_PortBlock_2</title>
<polygon fill="none" stroke="black" points="25,-447 25,-733 89.5,-733 89.5,-447 25,-447"/>
<text text-anchor="middle" x="57.25" y="-705.25" font-family="Times,serif" font-size="25.00">Ports</text>
</g>
<g id="clust3" class="cluster">
<title>cluster_Switch_9</title>
<polygon fill="none" stroke="black" points="345,-422 345,-794.5 640.46,-794.5 640.46,-422 345,-422"/>
<text text-anchor="middle" x="492.73" y="-766.75" font-family="Times,serif" font-size="25.00">sw B</text>
</g>
<g id="clust4" class="cluster">
<title>cluster_PortBlock_11</title>
<polygon fill="none" stroke="black" points="370,-447 370,-733 434.5,-733 434.5,-447 370,-447"/>
<text text-anchor="middle" x="402.25" y="-705.25" font-family="Times,serif" font-size="25.00">Ports</text>
</g>
<g id="clust5" class="cluster">
<title>cluster_Switch_18</title>
<polygon fill="none" stroke="black" points="0,0 0,-372.5 295.46,-372.5 295.46,0 0,0"/>
<text text-anchor="middle" x="147.73" y="-344.75" font-family="Times,serif" font-size="25.00">sw C</text>
</g>
<g id="clust6" class="cluster">
<title>cluster_PortBlock_20</title>
<polygon fill="none" stroke="black" points="25,-25 25,-311 89.5,-311 89.5,-25 25,-25"/>
<text text-anchor="middle" x="57.25" y="-283.25" font-family="Times,serif" font-size="25.00">Ports</text>
</g>
<g id="clust7" class="cluster">
<title>cluster_Switch_27</title>
<polygon fill="none" stroke="black" points="345,0 345,-372.5 640.46,-372.5 640.46,0 345,0"/>
<text text-anchor="middle" x="492.73" y="-344.75" font-family="Times,serif" font-size="25.00">sw D</text>
</g>
<g id="clust8" class="cluster">
<title>cluster_PortBlock_29</title>
<polygon fill="none" stroke="black" points="370,-25 370,-311 434.5,-311 434.5,-25 370,-25"/>
<text text-anchor="middle" x="402.25" y="-283.25" font-family="Times,serif" font-size="25.00">Ports</text>
</g>
<!-- Component_1 -->
<g id="node1" class="node">
<title>Component_1</title>
<polygon fill="none" stroke="black" points="270.46,-589.8 237.59,-619.6 171.86,-619.6 139,-589.8 171.86,-560 237.59,-560 270.46,-589.8"/>
<text text-anchor="middle" x="204.73" y="-580.3" font-family="Times,serif" font-size="25.00">Fabric</text>
</g>
<!-- Component_3 -->
<g id="node2" class="node">
<title>Component_3</title>
<polygon fill="none" stroke="black" points="87,-694 27.5,-694 27.5,-657.5 87,-657.5 87,-694"/>
<text text-anchor="middle" x="57.25" y="-666.25" font-family="Times,serif" font-size="25.00">eth0</text>
</g>
<!-- Component_4 -->
<g id="node3" class="node">
<title>Component_4</title>
<polygon fill="none" stroke="black" points="87,-652 27.5,-652 27.5,-615.5 87,-615.5 87,-652"/>
<text text-anchor="middle" x="57.25" y="-624.25" font-family="Times,serif" font-size="25.00">eth1</text>
</g>
<!-- Component_15 -->
<g id="node12" class="node">
<title>Component_15</title>
<polygon fill="none" stroke="black" points="432,-569 372.5,-569 372.5,-532.5 432,-532.5 432,-569"/>
<text text-anchor="middle" x="402.25" y="-541.25" font-family="Times,serif" font-size="25.00">eth3</text>
</g>
<!-- Component_4&#45;&gt;Component_15 -->
<g id="edge1" class="edge">
<title>Component_4&#45;&gt;Component_15</title>
<path fill="none" stroke="#e41a1c" d="M87.35,-630C159.9,-630 338.49,-630 338.49,-630 338.49,-630 338.49,-564 338.49,-564 338.49,-564 360.72,-564 360.72,-564"/>
<polygon fill="#e41a1c" stroke="#e41a1c" points="360.72,-567.5 370.72,-564 360.72,-560.5 360.72,-567.5"/>
</g>
<!-- Component_5 -->
<g id="node4" class="node">
<title>Component_5</title>
<polygon fill="none" stroke="black" points="87,-611 27.5,-611 27.5,-574.5 87,-574.5 87,-611"/>
<text text-anchor="middle" x="57.25" y="-583.25" font-family="Times,serif" font-size="25.00">eth2</text>
</g>
<!-- Component_6 -->
<g id="node5" class="node">
<title>Component_6</title>
<polygon fill="none" stroke="black" points="87,-569 27.5,-569 27.5,-532.5 87,-532.5 87,-569"/>
<text text-anchor="middle" x="57.25" y="-541.25" font-family="Times,serif" font-size="25.00">eth3</text>
</g>
<!-- Component_7 -->
<g id="node6" class="node">
<title>Component_7</title>
<polygon fill="none" stroke="black" points="87,-528 27.5,-528 27.5,-491.5 87,-491.5 87,-528"/>
<text text-anchor="middle" x="57.25" y="-500.25" font-family="Times,serif" font-size="25.00">eth4</text>
</g>
<!-- Component_8 -->
<g id="node7" class="node">
<title>Component_8</title>
<polygon fill="none" stroke="black" points="87,-486 27.5,-486 27.5,-449.5 87,-449.5 87,-486"/>
<text text-anchor="middle" x="57.25" y="-458.25" font-family="Times,serif" font-size="25.00">eth5</text>
</g>
<!-- Component_10 -->
<g id="node8" class="node">
<title>Component_10</title>
<polygon fill="none" stroke="black" points="615.46,-589.8 582.59,-619.6 516.86,-619.6 484,-589.8 516.86,-560 582.59,-560 615.46,-589.8"/>
<text text-anchor="middle" x="549.73" y="-580.3" font-family="Times,serif" font-size="25.00">Fabric</text>
</g>
<!-- Component_14 -->
<g id="node11" class="node">
<title>Component_14</title>
<polygon fill="none" stroke="black" points="432,-611 372.5,-611 372.5,-574.5 432,-574.5 432,-611"/>
<text text-anchor="middle" x="402.25" y="-583.25" font-family="Times,serif" font-size="25.00">eth2</text>
</g>
<!-- Component_10&#45;&gt;Component_14 -->
<g id="edge7" class="edge">
<title>Component_10&#45;&gt;Component_14</title>
<path fill="none" stroke="#377eb8" d="M485.9,-592C485.9,-592 443.69,-592 443.69,-592"/>
<polygon fill="#377eb8" stroke="#377eb8" points="443.69,-588.5 433.69,-592 443.69,-595.5 443.69,-588.5"/>
</g>
<!-- Component_17 -->
<g id="node14" class="node">
<title>Component_17</title>
<polygon fill="none" stroke="black" points="432,-486 372.5,-486 372.5,-449.5 432,-449.5 432,-486"/>
<text text-anchor="middle" x="402.25" y="-458.25" font-family="Times,serif" font-size="25.00">eth5</text>
</g>
<!-- Component_10&#45;&gt;Component_17 -->
<g id="edge3" class="edge">
<title>Component_10&#45;&gt;Component_17</title>
<path fill="none" stroke="#e41a1c" d="M516.86,-559.72C516.86,-525.12 516.86,-473 516.86,-473 516.86,-473 443.88,-473 443.88,-473"/>
<polygon fill="#e41a1c" stroke="#e41a1c" points="443.88,-469.5 433.88,-473 443.88,-476.5 443.88,-469.5"/>
</g>
<!-- Component_10&#45;&gt;Component_17 -->
<g id="edge11" class="edge">
<title>Component_10&#45;&gt;Component_17</title>
<path fill="none" stroke="#4daf4a" d="M549.73,-559.6C549.73,-521.53 549.73,-461 549.73,-461 549.73,-461 443.96,-461 443.96,-461"/>
<polygon fill="#4daf4a" stroke="#4daf4a" points="443.96,-457.5 433.96,-461 443.96,-464.5 443.96,-457.5"/>
</g>
<!-- Component_12 -->
<g id="node9" class="node">
<title>Component_12</title>
<polygon fill="none" stroke="black" points="432,-694 372.5,-694 372.5,-657.5 432,-657.5 432,-694"/>
<text text-anchor="middle" x="402.25" y="-666.25" font-family="Times,serif" font-size="25.00">eth0</text>
</g>
<!-- Component_13 -->
<g id="node10" class="node">
<title>Component_13</title>
<polygon fill="none" stroke="black" points="432,-652 372.5,-652 372.5,-615.5 432,-615.5 432,-652"/>
<text text-anchor="middle" x="402.25" y="-624.25" font-family="Times,serif" font-size="25.00">eth1</text>
</g>
<!-- Component_13&#45;&gt;Component_10 -->
<g id="edge6" class="edge">
<title>Component_13&#45;&gt;Component_10</title>
<path fill="none" stroke="#377eb8" d="M432.45,-635C475.6,-635 549.73,-635 549.73,-635 549.73,-635 549.73,-631.46 549.73,-631.46"/>
<polygon fill="#377eb8" stroke="#377eb8" points="553.23,-631.46 549.73,-621.46 546.23,-631.46 553.23,-631.46"/>
</g>
<!-- Component_24 -->
<g id="node19" class="node">
<title>Component_24</title>
<polygon fill="none" stroke="black" points="87,-147 27.5,-147 27.5,-110.5 87,-110.5 87,-147"/>
<text text-anchor="middle" x="57.25" y="-119.25" font-family="Times,serif" font-size="25.00">eth3</text>
</g>
<!-- Component_14&#45;&gt;Component_24 -->
<g id="edge8" class="edge">
<title>Component_14&#45;&gt;Component_24</title>
<path fill="none" stroke="#377eb8" d="M372.12,-592C343.39,-592 304.47,-592 304.47,-592 304.47,-592 304.47,-124 304.47,-124 304.47,-124 98.58,-124 98.58,-124"/>
<polygon fill="#377eb8" stroke="#377eb8" points="98.58,-120.5 88.58,-124 98.58,-127.5 98.58,-120.5"/>
</g>
<!-- Component_15&#45;&gt;Component_10 -->
<g id="edge2" class="edge">
<title>Component_15&#45;&gt;Component_10</title>
<path fill="none" stroke="#e41a1c" d="M432.45,-566C432.45,-566 498.26,-566 498.26,-566"/>
<polygon fill="#e41a1c" stroke="#e41a1c" points="498.26,-569.5 508.26,-566 498.26,-562.5 498.26,-569.5"/>
</g>
<!-- Component_15&#45;&gt;Component_10 -->
<g id="edge10" class="edge">
<title>Component_15&#45;&gt;Component_10</title>
<path fill="none" stroke="#4daf4a" d="M432.45,-563C432.45,-563 501.53,-563 501.53,-563"/>
<polygon fill="#4daf4a" stroke="#4daf4a" points="501.53,-566.5 511.53,-563 501.53,-559.5 501.53,-566.5"/>
</g>
<!-- Component_16 -->
<g id="node13" class="node">
<title>Component_16</title>
<polygon fill="none" stroke="black" points="432,-528 372.5,-528 372.5,-491.5 432,-491.5 432,-528"/>
<text text-anchor="middle" x="402.25" y="-500.25" font-family="Times,serif" font-size="25.00">eth4</text>
</g>
<!-- Component_23 -->
<g id="node18" class="node">
<title>Component_23</title>
<polygon fill="none" stroke="black" points="87,-189 27.5,-189 27.5,-152.5 87,-152.5 87,-189"/>
<text text-anchor="middle" x="57.25" y="-161.25" font-family="Times,serif" font-size="25.00">eth2</text>
</g>
<!-- Component_17&#45;&gt;Component_23 -->
<g id="edge4" class="edge">
<title>Component_17&#45;&gt;Component_23</title>
<path fill="none" stroke="#e41a1c" d="M372.12,-473C299.02,-473 118.2,-473 118.2,-473 118.2,-473 118.2,-176 118.2,-176 118.2,-176 98.88,-176 98.88,-176"/>
<polygon fill="#e41a1c" stroke="#e41a1c" points="98.88,-172.5 88.88,-176 98.88,-179.5 98.88,-172.5"/>
</g>
<!-- Component_17&#45;&gt;Component_23 -->
<g id="edge12" class="edge">
<title>Component_17&#45;&gt;Component_23</title>
<path fill="none" stroke="#4daf4a" d="M372.18,-461C301.1,-461 128.6,-461 128.6,-461 128.6,-461 128.6,-164 128.6,-164 128.6,-164 98.61,-164 98.61,-164"/>
<polygon fill="#4daf4a" stroke="#4daf4a" points="98.61,-160.5 88.61,-164 98.61,-167.5 98.61,-160.5"/>
</g>
<!-- Component_19 -->
<g id="node15" class="node">
<title>Component_19</title>
<polygon fill="none" stroke="black" points="270.46,-167.8 237.59,-197.6 171.86,-197.6 139,-167.8 171.86,-138 237.59,-138 270.46,-167.8"/>
<text text-anchor="middle" x="204.73" y="-158.3" font-family="Times,serif" font-size="25.00">Fabric</text>
</g>
<!-- Component_21 -->
<g id="node16" class="node">
<title>Component_21</title>
<polygon fill="none" stroke="black" points="87,-272 27.5,-272 27.5,-235.5 87,-235.5 87,-272"/>
<text text-anchor="middle" x="57.25" y="-244.25" font-family="Times,serif" font-size="25.00">eth0</text>
</g>
<!-- Component_22 -->
<g id="node17" class="node">
<title>Component_22</title>
<polygon fill="none" stroke="black" points="87,-230 27.5,-230 27.5,-193.5 87,-193.5 87,-230"/>
<text text-anchor="middle" x="57.25" y="-202.25" font-family="Times,serif" font-size="25.00">eth1</text>
</g>
<!-- Component_22&#45;&gt;Component_13 -->
<g id="edge5" class="edge">
<title>Component_22&#45;&gt;Component_13</title>
<path fill="none" stroke="#377eb8" d="M87.27,-219C93.08,-219 97.4,-219 97.4,-219 97.4,-219 97.4,-641 97.4,-641 97.4,-641 360.67,-641 360.67,-641"/>
<polygon fill="#377eb8" stroke="#377eb8" points="360.67,-644.5 370.67,-641 360.67,-637.5 360.67,-644.5"/>
</g>
<!-- Component_22&#45;&gt;Component_15 -->
<g id="edge9" class="edge">
<title>Component_22&#45;&gt;Component_15</title>
<path fill="none" stroke="#4daf4a" d="M87.24,-208C98.12,-208 107.8,-208 107.8,-208 107.8,-208 107.8,-546 107.8,-546 107.8,-546 360.61,-546 360.61,-546"/>
<polygon fill="#4daf4a" stroke="#4daf4a" points="360.61,-549.5 370.61,-546 360.61,-542.5 360.61,-549.5"/>
</g>
<!-- Component_25 -->
<g id="node20" class="node">
<title>Component_25</title>
<polygon fill="none" stroke="black" points="87,-106 27.5,-106 27.5,-69.5 87,-69.5 87,-106"/>
<text text-anchor="middle" x="57.25" y="-78.25" font-family="Times,serif" font-size="25.00">eth4</text>
</g>
<!-- Component_26 -->
<g id="node21" class="node">
<title>Component_26</title>
<polygon fill="none" stroke="black" points="87,-64 27.5,-64 27.5,-27.5 87,-27.5 87,-64"/>
<text text-anchor="middle" x="57.25" y="-36.25" font-family="Times,serif" font-size="25.00">eth5</text>
</g>
<!-- Component_28 -->
<g id="node22" class="node">
<title>Component_28</title>
<polygon fill="none" stroke="black" points="615.46,-167.8 582.59,-197.6 516.86,-197.6 484,-167.8 516.86,-138 582.59,-138 615.46,-167.8"/>
<text text-anchor="middle" x="549.73" y="-158.3" font-family="Times,serif" font-size="25.00">Fabric</text>
</g>
<!-- Component_34 -->
<g id="node27" class="node">
<title>Component_34</title>
<polygon fill="none" stroke="black" points="432,-106 372.5,-106 372.5,-69.5 432,-69.5 432,-106"/>
<text text-anchor="middle" x="402.25" y="-78.25" font-family="Times,serif" font-size="25.00">eth4</text>
</g>
<!-- Component_28&#45;&gt;Component_34 -->
<g id="edge14" class="edge">
<title>Component_28&#45;&gt;Component_34</title>
<path fill="none" stroke="#984ea3" d="M549.73,-137.71C549.73,-114.74 549.73,-87 549.73,-87 549.73,-87 443.96,-87 443.96,-87"/>
<polygon fill="#984ea3" stroke="#984ea3" points="443.96,-83.5 433.96,-87 443.96,-90.5 443.96,-83.5"/>
</g>
<!-- Component_30 -->
<g id="node23" class="node">
<title>Component_30</title>
<polygon fill="none" stroke="black" points="432,-272 372.5,-272 372.5,-235.5 432,-235.5 432,-272"/>
<text text-anchor="middle" x="402.25" y="-244.25" font-family="Times,serif" font-size="25.00">eth0</text>
</g>
<!-- Component_30&#45;&gt;Component_28 -->
<g id="edge13" class="edge">
<title>Component_30&#45;&gt;Component_28</title>
<path fill="none" stroke="#984ea3" d="M432.44,-253C483.77,-253 582.59,-253 582.59,-253 582.59,-253 582.59,-209.59 582.59,-209.59"/>
<polygon fill="#984ea3" stroke="#984ea3" points="586.09,-209.59 582.59,-199.59 579.09,-209.59 586.09,-209.59"/>
</g>
<!-- Component_31 -->
<g id="node24" class="node">
<title>Component_31</title>
<polygon fill="none" stroke="black" points="432,-230 372.5,-230 372.5,-193.5 432,-193.5 432,-230"/>
<text text-anchor="middle" x="402.25" y="-202.25" font-family="Times,serif" font-size="25.00">eth1</text>
</g>
<!-- Component_32 -->
<g id="node25" class="node">
<title>Component_32</title>
<polygon fill="none" stroke="black" points="432,-189 372.5,-189 372.5,-152.5 432,-152.5 432,-189"/>
<text text-anchor="middle" x="402.25" y="-161.25" font-family="Times,serif" font-size="25.00">eth2</text>
</g>
<!-- Component_33 -->
<g id="node26" class="node">
<title>Component_33</title>
<polygon fill="none" stroke="black" points="432,-147 372.5,-147 372.5,-110.5 432,-110.5 432,-147"/>
<text text-anchor="middle" x="402.25" y="-119.25" font-family="Times,serif" font-size="25.00">eth3</text>
</g>
<!-- Component_35 -->
<g id="node28" class="node">
<title>Component_35</title>
<polygon fill="none" stroke="black" points="432,-64 372.5,-64 372.5,-27.5 432,-27.5 432,-64"/>
<text text-anchor="middle" x="402.25" y="-36.25" font-family="Times,serif" font-size="25.00">eth5</text>
</g>
</g>
</svg>
